<?xml version="1.0" encoding="UTF-8" standalone="no"?>
<!DOCTYPE svg PUBLIC "-//W3C//DTD SVG 1.1//EN"
 "http://www.w3.org/Graphics/SVG/1.1/DTD/svg11.dtd">
<!-- Generated by graphviz version 12.2.1 (20241206.2353)
 -->
<!-- Pages: 1 -->
<svg width="464pt" height="797pt"
 viewBox="0.00 0.00 477.56 820.25" xmlns="http://www.w3.org/2000/svg" xmlns:xlink="http://www.w3.org/1999/xlink">
<g id="graph0" class="graph" transform="scale(0.972222 0.972222) rotate(0) translate(4 816.25)">
<polygon fill="white" stroke="none" points="-4,4 -4,-816.25 473.56,-816.25 473.56,4 -4,4"/>
<!-- 0 -->
<g id="node1" class="node">
<title>0</title>
<ellipse fill="green" stroke="black" cx="236.78" cy="-794.25" rx="28.78" ry="18"/>
<text text-anchor="middle" x="236.78" y="-788.08" font-family="Times,serif" font-size="14.00">q1[0]</text>
</g>
<!-- 16 -->
<g id="node17" class="node">
<title>16</title>
<ellipse fill="lightblue" stroke="blue" cx="234.78" cy="-708" rx="27" ry="18"/>
<text text-anchor="middle" x="234.78" y="-701.83" font-family="Times,serif" font-size="14.00">h</text>
</g>
<!-- 0&#45;&gt;16 -->
<g id="edge9" class="edge">
<title>0&#45;&gt;16</title>
<path fill="none" stroke="black" d="M236.37,-775.79C236.11,-764.84 235.76,-750.44 235.46,-737.82"/>
<polygon fill="black" stroke="black" points="238.97,-737.86 235.23,-727.95 231.97,-738.03 238.97,-737.86"/>
<text text-anchor="middle" x="250.52" y="-744.95" font-family="Times,serif" font-size="14.00">q1[0]</text>
</g>
<!-- 1 -->
<g id="node2" class="node">
<title>1</title>
<ellipse fill="red" stroke="black" cx="176.78" cy="-535.5" rx="28.78" ry="18"/>
<text text-anchor="middle" x="176.78" y="-529.33" font-family="Times,serif" font-size="14.00">q1[0]</text>
</g>
<!-- 2 -->
<g id="node3" class="node">
<title>2</title>
<ellipse fill="green" stroke="black" cx="72.78" cy="-708" rx="28.78" ry="18"/>
<text text-anchor="middle" x="72.78" y="-701.83" font-family="Times,serif" font-size="14.00">q1[1]</text>
</g>
<!-- 17 -->
<g id="node18" class="node">
<title>17</title>
<ellipse fill="lightblue" stroke="blue" cx="72.78" cy="-621.75" rx="27" ry="18"/>
<text text-anchor="middle" x="72.78" y="-615.58" font-family="Times,serif" font-size="14.00">h</text>
</g>
<!-- 2&#45;&gt;17 -->
<g id="edge1" class="edge">
<title>2&#45;&gt;17</title>
<path fill="none" stroke="black" d="M72.78,-689.54C72.78,-678.59 72.78,-664.19 72.78,-651.57"/>
<polygon fill="black" stroke="black" points="76.28,-651.7 72.78,-641.7 69.28,-651.7 76.28,-651.7"/>
<text text-anchor="middle" x="87.41" y="-658.7" font-family="Times,serif" font-size="14.00">q1[1]</text>
</g>
<!-- 3 -->
<g id="node4" class="node">
<title>3</title>
<ellipse fill="red" stroke="black" cx="102.78" cy="-449.25" rx="28.78" ry="18"/>
<text text-anchor="middle" x="102.78" y="-443.07" font-family="Times,serif" font-size="14.00">q1[1]</text>
</g>
<!-- 4 -->
<g id="node5" class="node">
<title>4</title>
<ellipse fill="green" stroke="black" cx="250.78" cy="-621.75" rx="28.78" ry="18"/>
<text text-anchor="middle" x="250.78" y="-615.58" font-family="Times,serif" font-size="14.00">q1[2]</text>
</g>
<!-- 18 -->
<g id="node19" class="node">
<title>18</title>
<ellipse fill="lightblue" stroke="blue" cx="250.78" cy="-535.5" rx="27" ry="18"/>
<text text-anchor="middle" x="250.78" y="-529.33" font-family="Times,serif" font-size="14.00">h</text>
</g>
<!-- 4&#45;&gt;18 -->
<g id="edge2" class="edge">
<title>4&#45;&gt;18</title>
<path fill="none" stroke="black" d="M250.78,-603.29C250.78,-592.34 250.78,-577.94 250.78,-565.32"/>
<polygon fill="black" stroke="black" points="254.28,-565.45 250.78,-555.45 247.28,-565.45 254.28,-565.45"/>
<text text-anchor="middle" x="265.41" y="-572.45" font-family="Times,serif" font-size="14.00">q1[2]</text>
</g>
<!-- 5 -->
<g id="node6" class="node">
<title>5</title>
<ellipse fill="red" stroke="black" cx="176.78" cy="-363" rx="28.78" ry="18"/>
<text text-anchor="middle" x="176.78" y="-356.82" font-family="Times,serif" font-size="14.00">q1[2]</text>
</g>
<!-- 6 -->
<g id="node7" class="node">
<title>6</title>
<ellipse fill="green" stroke="black" cx="28.78" cy="-535.5" rx="28.78" ry="18"/>
<text text-anchor="middle" x="28.78" y="-529.33" font-family="Times,serif" font-size="14.00">q1[3]</text>
</g>
<!-- 19 -->
<g id="node20" class="node">
<title>19</title>
<ellipse fill="lightblue" stroke="blue" cx="28.78" cy="-449.25" rx="27" ry="18"/>
<text text-anchor="middle" x="28.78" y="-443.07" font-family="Times,serif" font-size="14.00">h</text>
</g>
<!-- 6&#45;&gt;19 -->
<g id="edge3" class="edge">
<title>6&#45;&gt;19</title>
<path fill="none" stroke="black" d="M28.78,-517.04C28.78,-506.09 28.78,-491.69 28.78,-479.07"/>
<polygon fill="black" stroke="black" points="32.28,-479.2 28.78,-469.2 25.28,-479.2 32.28,-479.2"/>
<text text-anchor="middle" x="43.41" y="-486.2" font-family="Times,serif" font-size="14.00">q1[3]</text>
</g>
<!-- 7 -->
<g id="node8" class="node">
<title>7</title>
<ellipse fill="red" stroke="black" cx="102.78" cy="-276.75" rx="28.78" ry="18"/>
<text text-anchor="middle" x="102.78" y="-270.57" font-family="Times,serif" font-size="14.00">q1[3]</text>
</g>
<!-- 8 -->
<g id="node9" class="node">
<title>8</title>
<ellipse fill="green" stroke="black" cx="250.78" cy="-449.25" rx="28.78" ry="18"/>
<text text-anchor="middle" x="250.78" y="-443.07" font-family="Times,serif" font-size="14.00">q1[4]</text>
</g>
<!-- 20 -->
<g id="node21" class="node">
<title>20</title>
<ellipse fill="lightblue" stroke="blue" cx="250.78" cy="-363" rx="27" ry="18"/>
<text text-anchor="middle" x="250.78" y="-356.82" font-family="Times,serif" font-size="14.00">h</text>
</g>
<!-- 8&#45;&gt;20 -->
<g id="edge4" class="edge">
<title>8&#45;&gt;20</title>
<path fill="none" stroke="black" d="M250.78,-430.79C250.78,-419.84 250.78,-405.44 250.78,-392.82"/>
<polygon fill="black" stroke="black" points="254.28,-392.95 250.78,-382.95 247.28,-392.95 254.28,-392.95"/>
<text text-anchor="middle" x="265.41" y="-399.95" font-family="Times,serif" font-size="14.00">q1[4]</text>
</g>
<!-- 9 -->
<g id="node10" class="node">
<title>9</title>
<ellipse fill="red" stroke="black" cx="224.78" cy="-190.5" rx="28.78" ry="18"/>
<text text-anchor="middle" x="224.78" y="-184.32" font-family="Times,serif" font-size="14.00">q1[4]</text>
</g>
<!-- 10 -->
<g id="node11" class="node">
<title>10</title>
<ellipse fill="green" stroke="black" cx="328.78" cy="-363" rx="28.78" ry="18"/>
<text text-anchor="middle" x="328.78" y="-356.82" font-family="Times,serif" font-size="14.00">q1[5]</text>
</g>
<!-- 21 -->
<g id="node22" class="node">
<title>21</title>
<ellipse fill="lightblue" stroke="blue" cx="328.78" cy="-276.75" rx="27" ry="18"/>
<text text-anchor="middle" x="328.78" y="-270.57" font-family="Times,serif" font-size="14.00">h</text>
</g>
<!-- 10&#45;&gt;21 -->
<g id="edge5" class="edge">
<title>10&#45;&gt;21</title>
<path fill="none" stroke="black" d="M328.78,-344.54C328.78,-333.59 328.78,-319.19 328.78,-306.57"/>
<polygon fill="black" stroke="black" points="332.28,-306.7 328.78,-296.7 325.28,-306.7 332.28,-306.7"/>
<text text-anchor="middle" x="343.41" y="-313.7" font-family="Times,serif" font-size="14.00">q1[5]</text>
</g>
<!-- 11 -->
<g id="node12" class="node">
<title>11</title>
<ellipse fill="red" stroke="black" cx="313.78" cy="-104.25" rx="28.78" ry="18"/>
<text text-anchor="middle" x="313.78" y="-98.08" font-family="Times,serif" font-size="14.00">q1[5]</text>
</g>
<!-- 12 -->
<g id="node13" class="node">
<title>12</title>
<ellipse fill="green" stroke="black" cx="417.78" cy="-276.75" rx="28.78" ry="18"/>
<text text-anchor="middle" x="417.78" y="-270.57" font-family="Times,serif" font-size="14.00">q1[6]</text>
</g>
<!-- 22 -->
<g id="node23" class="node">
<title>22</title>
<ellipse fill="lightblue" stroke="blue" cx="417.78" cy="-190.5" rx="27" ry="18"/>
<text text-anchor="middle" x="417.78" y="-184.32" font-family="Times,serif" font-size="14.00">h</text>
</g>
<!-- 12&#45;&gt;22 -->
<g id="edge6" class="edge">
<title>12&#45;&gt;22</title>
<path fill="none" stroke="black" d="M417.78,-258.29C417.78,-247.34 417.78,-232.94 417.78,-220.32"/>
<polygon fill="black" stroke="black" points="421.28,-220.45 417.78,-210.45 414.28,-220.45 421.28,-220.45"/>
<text text-anchor="middle" x="432.41" y="-227.45" font-family="Times,serif" font-size="14.00">q1[6]</text>
</g>
<!-- 13 -->
<g id="node14" class="node">
<title>13</title>
<ellipse fill="red" stroke="black" cx="364.78" cy="-18" rx="28.78" ry="18"/>
<text text-anchor="middle" x="364.78" y="-11.82" font-family="Times,serif" font-size="14.00">q1[6]</text>
</g>
<!-- 14 -->
<g id="node15" class="node">
<title>14</title>
<ellipse fill="green" stroke="black" cx="160.78" cy="-794.25" rx="28.78" ry="18"/>
<text text-anchor="middle" x="160.78" y="-788.08" font-family="Times,serif" font-size="14.00">q1[7]</text>
</g>
<!-- 23 -->
<g id="node24" class="node">
<title>23</title>
<ellipse fill="lightblue" stroke="blue" cx="161.78" cy="-708" rx="27" ry="18"/>
<text text-anchor="middle" x="161.78" y="-701.83" font-family="Times,serif" font-size="14.00">h</text>
</g>
<!-- 14&#45;&gt;23 -->
<g id="edge7" class="edge">
<title>14&#45;&gt;23</title>
<path fill="none" stroke="black" d="M160.99,-775.79C161.12,-764.84 161.29,-750.44 161.44,-737.82"/>
<polygon fill="black" stroke="black" points="164.94,-737.99 161.56,-727.95 157.94,-737.91 164.94,-737.99"/>
<text text-anchor="middle" x="175.96" y="-744.95" font-family="Times,serif" font-size="14.00">q1[7]</text>
</g>
<!-- 15 -->
<g id="node16" class="node">
<title>15</title>
<ellipse fill="red" stroke="black" cx="440.78" cy="-18" rx="28.78" ry="18"/>
<text text-anchor="middle" x="440.78" y="-11.82" font-family="Times,serif" font-size="14.00">q1[7]</text>
</g>
<!-- 24 -->
<g id="node25" class="node">
<title>24</title>
<ellipse fill="lightblue" stroke="blue" cx="169.78" cy="-621.75" rx="27" ry="18"/>
<text text-anchor="middle" x="169.78" y="-615.58" font-family="Times,serif" font-size="14.00">cx</text>
</g>
<!-- 16&#45;&gt;24 -->
<g id="edge8" class="edge">
<title>16&#45;&gt;24</title>
<path fill="none" stroke="black" d="M224.1,-691.21C217.34,-681.41 208.3,-668.66 199.78,-657.75 196.84,-653.99 193.65,-650.08 190.47,-646.3"/>
<polygon fill="black" stroke="black" points="193.37,-644.31 184.21,-638.98 188.05,-648.86 193.37,-644.31"/>
<text text-anchor="middle" x="224.39" y="-658.7" font-family="Times,serif" font-size="14.00">q1[0]</text>
</g>
<!-- 25 -->
<g id="node26" class="node">
<title>25</title>
<ellipse fill="lightblue" stroke="blue" cx="102.78" cy="-535.5" rx="27" ry="18"/>
<text text-anchor="middle" x="102.78" y="-529.33" font-family="Times,serif" font-size="14.00">cx</text>
</g>
<!-- 17&#45;&gt;25 -->
<g id="edge17" class="edge">
<title>17&#45;&gt;25</title>
<path fill="none" stroke="black" d="M70.26,-603.36C69.54,-593.69 69.78,-581.6 73.53,-571.5 75.1,-567.28 77.41,-563.2 80.07,-559.42"/>
<polygon fill="black" stroke="black" points="82.6,-561.85 86.17,-551.88 77.16,-557.45 82.6,-561.85"/>
<text text-anchor="middle" x="88.16" y="-572.45" font-family="Times,serif" font-size="14.00">q1[1]</text>
</g>
<!-- 26 -->
<g id="node27" class="node">
<title>26</title>
<ellipse fill="lightblue" stroke="blue" cx="176.78" cy="-449.25" rx="27" ry="18"/>
<text text-anchor="middle" x="176.78" y="-443.07" font-family="Times,serif" font-size="14.00">cx</text>
</g>
<!-- 18&#45;&gt;26 -->
<g id="edge19" class="edge">
<title>18&#45;&gt;26</title>
<path fill="none" stroke="black" d="M237.55,-519.44C226.4,-506.74 210.24,-488.35 197.39,-473.72"/>
<polygon fill="black" stroke="black" points="200.12,-471.52 190.89,-466.32 194.86,-476.14 200.12,-471.52"/>
<text text-anchor="middle" x="232.84" y="-486.2" font-family="Times,serif" font-size="14.00">q1[2]</text>
</g>
<!-- 27 -->
<g id="node28" class="node">
<title>27</title>
<ellipse fill="lightblue" stroke="blue" cx="102.78" cy="-363" rx="27" ry="18"/>
<text text-anchor="middle" x="102.78" y="-356.82" font-family="Times,serif" font-size="14.00">cx</text>
</g>
<!-- 19&#45;&gt;27 -->
<g id="edge21" class="edge">
<title>19&#45;&gt;27</title>
<path fill="none" stroke="black" d="M42.01,-433.19C53.16,-420.49 69.32,-402.1 82.17,-387.47"/>
<polygon fill="black" stroke="black" points="84.7,-389.89 88.67,-380.07 79.44,-385.27 84.7,-389.89"/>
<text text-anchor="middle" x="84.84" y="-399.95" font-family="Times,serif" font-size="14.00">q1[3]</text>
</g>
<!-- 28 -->
<g id="node29" class="node">
<title>28</title>
<ellipse fill="lightblue" stroke="blue" cx="239.78" cy="-276.75" rx="27" ry="18"/>
<text text-anchor="middle" x="239.78" y="-270.57" font-family="Times,serif" font-size="14.00">cx</text>
</g>
<!-- 20&#45;&gt;28 -->
<g id="edge23" class="edge">
<title>20&#45;&gt;28</title>
<path fill="none" stroke="black" d="M248.55,-344.95C247.1,-333.83 245.17,-319.05 243.49,-306.18"/>
<polygon fill="black" stroke="black" points="247,-306.03 242.24,-296.56 240.06,-306.93 247,-306.03"/>
<text text-anchor="middle" x="260.56" y="-313.7" font-family="Times,serif" font-size="14.00">q1[4]</text>
</g>
<!-- 29 -->
<g id="node30" class="node">
<title>29</title>
<ellipse fill="lightblue" stroke="blue" cx="321.78" cy="-190.5" rx="27" ry="18"/>
<text text-anchor="middle" x="321.78" y="-184.32" font-family="Times,serif" font-size="14.00">cx</text>
</g>
<!-- 21&#45;&gt;29 -->
<g id="edge25" class="edge">
<title>21&#45;&gt;29</title>
<path fill="none" stroke="black" d="M327.33,-258.29C326.42,-247.34 325.22,-232.94 324.17,-220.32"/>
<polygon fill="black" stroke="black" points="327.67,-220.12 323.35,-210.44 320.69,-220.7 327.67,-220.12"/>
<text text-anchor="middle" x="340.32" y="-227.45" font-family="Times,serif" font-size="14.00">q1[5]</text>
</g>
<!-- 30 -->
<g id="node31" class="node">
<title>30</title>
<ellipse fill="lightblue" stroke="blue" cx="402.78" cy="-104.25" rx="27" ry="18"/>
<text text-anchor="middle" x="402.78" y="-98.08" font-family="Times,serif" font-size="14.00">cx</text>
</g>
<!-- 22&#45;&gt;30 -->
<g id="edge27" class="edge">
<title>22&#45;&gt;30</title>
<path fill="none" stroke="black" d="M414.74,-172.45C412.77,-161.33 410.13,-146.55 407.84,-133.68"/>
<polygon fill="black" stroke="black" points="411.33,-133.28 406.13,-124.05 404.43,-134.51 411.33,-133.28"/>
<text text-anchor="middle" x="425.8" y="-141.2" font-family="Times,serif" font-size="14.00">q1[6]</text>
</g>
<!-- 23&#45;&gt;24 -->
<g id="edge10" class="edge">
<title>23&#45;&gt;24</title>
<path fill="none" stroke="black" d="M163.44,-689.54C164.48,-678.59 165.85,-664.19 167.04,-651.57"/>
<polygon fill="black" stroke="black" points="170.52,-651.98 167.98,-641.69 163.55,-651.32 170.52,-651.98"/>
<text text-anchor="middle" x="180.88" y="-658.7" font-family="Times,serif" font-size="14.00">q1[7]</text>
</g>
<!-- 24&#45;&gt;1 -->
<g id="edge18" class="edge">
<title>24&#45;&gt;1</title>
<path fill="none" stroke="black" d="M171.23,-603.29C172.14,-592.34 173.34,-577.94 174.39,-565.32"/>
<polygon fill="black" stroke="black" points="177.87,-565.7 175.21,-555.44 170.89,-565.12 177.87,-565.7"/>
<text text-anchor="middle" x="188.32" y="-572.45" font-family="Times,serif" font-size="14.00">q1[0]</text>
</g>
<!-- 24&#45;&gt;25 -->
<g id="edge11" class="edge">
<title>24&#45;&gt;25</title>
<path fill="none" stroke="black" d="M156.59,-605.96C151.2,-599.8 144.96,-592.51 139.53,-585.75 133.26,-577.95 126.65,-569.24 120.79,-561.35"/>
<polygon fill="black" stroke="black" points="123.73,-559.44 114.98,-553.46 118.09,-563.59 123.73,-559.44"/>
<text text-anchor="middle" x="154.16" y="-572.45" font-family="Times,serif" font-size="14.00">q1[7]</text>
</g>
<!-- 25&#45;&gt;3 -->
<g id="edge20" class="edge">
<title>25&#45;&gt;3</title>
<path fill="none" stroke="black" d="M102.78,-517.04C102.78,-506.09 102.78,-491.69 102.78,-479.07"/>
<polygon fill="black" stroke="black" points="106.28,-479.2 102.78,-469.2 99.28,-479.2 106.28,-479.2"/>
<text text-anchor="middle" x="117.41" y="-486.2" font-family="Times,serif" font-size="14.00">q1[1]</text>
</g>
<!-- 25&#45;&gt;26 -->
<g id="edge12" class="edge">
<title>25&#45;&gt;26</title>
<path fill="none" stroke="black" d="M116.79,-520.04C122.74,-513.8 129.69,-506.38 135.78,-499.5 142.96,-491.39 150.61,-482.33 157.34,-474.21"/>
<polygon fill="black" stroke="black" points="159.85,-476.66 163.5,-466.71 154.44,-472.22 159.85,-476.66"/>
<text text-anchor="middle" x="161.92" y="-486.2" font-family="Times,serif" font-size="14.00">q1[7]</text>
</g>
<!-- 26&#45;&gt;5 -->
<g id="edge22" class="edge">
<title>26&#45;&gt;5</title>
<path fill="none" stroke="black" d="M176.78,-430.79C176.78,-419.84 176.78,-405.44 176.78,-392.82"/>
<polygon fill="black" stroke="black" points="180.28,-392.95 176.78,-382.95 173.28,-392.95 180.28,-392.95"/>
<text text-anchor="middle" x="191.41" y="-399.95" font-family="Times,serif" font-size="14.00">q1[2]</text>
</g>
<!-- 26&#45;&gt;27 -->
<g id="edge13" class="edge">
<title>26&#45;&gt;27</title>
<path fill="none" stroke="black" d="M162.64,-433.81C156.65,-427.58 149.65,-420.15 143.53,-413.25 136.36,-405.17 128.75,-396.11 122.07,-387.99"/>
<polygon fill="black" stroke="black" points="124.99,-386.02 115.96,-380.49 119.57,-390.45 124.99,-386.02"/>
<text text-anchor="middle" x="158.16" y="-399.95" font-family="Times,serif" font-size="14.00">q1[7]</text>
</g>
<!-- 27&#45;&gt;7 -->
<g id="edge24" class="edge">
<title>27&#45;&gt;7</title>
<path fill="none" stroke="black" d="M102.78,-344.54C102.78,-333.59 102.78,-319.19 102.78,-306.57"/>
<polygon fill="black" stroke="black" points="106.28,-306.7 102.78,-296.7 99.28,-306.7 106.28,-306.7"/>
<text text-anchor="middle" x="117.41" y="-313.7" font-family="Times,serif" font-size="14.00">q1[3]</text>
</g>
<!-- 27&#45;&gt;28 -->
<g id="edge14" class="edge">
<title>27&#45;&gt;28</title>
<path fill="none" stroke="black" d="M122.12,-350.11C145.27,-335.87 184.26,-311.89 210.97,-295.47"/>
<polygon fill="black" stroke="black" points="212.57,-298.59 219.25,-290.37 208.9,-292.63 212.57,-298.59"/>
<text text-anchor="middle" x="194.11" y="-313.7" font-family="Times,serif" font-size="14.00">q1[7]</text>
</g>
<!-- 28&#45;&gt;9 -->
<g id="edge26" class="edge">
<title>28&#45;&gt;9</title>
<path fill="none" stroke="black" d="M231.66,-259.41C229.2,-253.66 226.81,-247.05 225.53,-240.75 224.17,-234.07 223.58,-226.77 223.42,-219.89"/>
<polygon fill="black" stroke="black" points="226.92,-220.07 223.49,-210.05 219.92,-220.02 226.92,-220.07"/>
<text text-anchor="middle" x="240.16" y="-227.45" font-family="Times,serif" font-size="14.00">q1[4]</text>
</g>
<!-- 28&#45;&gt;29 -->
<g id="edge15" class="edge">
<title>28&#45;&gt;29</title>
<path fill="none" stroke="black" d="M254.06,-261.07C266.64,-248.15 285.17,-229.11 299.67,-214.22"/>
<polygon fill="black" stroke="black" points="302.14,-216.7 306.6,-207.09 297.12,-211.82 302.14,-216.7"/>
<text text-anchor="middle" x="300.31" y="-227.45" font-family="Times,serif" font-size="14.00">q1[7]</text>
</g>
<!-- 29&#45;&gt;11 -->
<g id="edge28" class="edge">
<title>29&#45;&gt;11</title>
<path fill="none" stroke="black" d="M317.59,-172.51C316.37,-166.82 315.18,-160.42 314.53,-154.5 313.8,-147.91 313.45,-140.8 313.31,-134.08"/>
<polygon fill="black" stroke="black" points="316.81,-134.12 313.25,-124.14 309.81,-134.15 316.81,-134.12"/>
<text text-anchor="middle" x="329.16" y="-141.2" font-family="Times,serif" font-size="14.00">q1[5]</text>
</g>
<!-- 29&#45;&gt;30 -->
<g id="edge16" class="edge">
<title>29&#45;&gt;30</title>
<path fill="none" stroke="black" d="M335.89,-174.82C348.24,-161.98 366.39,-143.1 380.67,-128.24"/>
<polygon fill="black" stroke="black" points="383.1,-130.77 387.51,-121.13 378.06,-125.91 383.1,-130.77"/>
<text text-anchor="middle" x="381.75" y="-141.2" font-family="Times,serif" font-size="14.00">q1[7]</text>
</g>
<!-- 30&#45;&gt;13 -->
<g id="edge29" class="edge">
<title>30&#45;&gt;13</title>
<path fill="none" stroke="black" d="M395.27,-86.6C390.02,-74.95 382.88,-59.13 376.83,-45.72"/>
<polygon fill="black" stroke="black" points="380.2,-44.67 372.89,-36.99 373.82,-47.54 380.2,-44.67"/>
<text text-anchor="middle" x="400.68" y="-54.95" font-family="Times,serif" font-size="14.00">q1[6]</text>
</g>
<!-- 30&#45;&gt;15 -->
<g id="edge30" class="edge">
<title>30&#45;&gt;15</title>
<path fill="none" stroke="black" d="M410.46,-86.53C413.11,-80.74 416.08,-74.22 418.78,-68.25 422.06,-61 425.58,-53.13 428.83,-45.86"/>
<polygon fill="black" stroke="black" points="431.99,-47.37 432.87,-36.81 425.6,-44.52 431.99,-47.37"/>
<text text-anchor="middle" x="439.48" y="-54.95" font-family="Times,serif" font-size="14.00">q1[7]</text>
</g>
</g>
</svg>
